<?xml version="1.0" encoding="UTF-8" standalone="no"?>
<!-- Generator: Adobe Illustrator 16.0.0, SVG Export Plug-In . SVG Version: 6.00 Build 0)  -->

<svg
   version="1.1"
   id="geekfem_x5F_logo_x5F_positiv"
   x="0px"
   y="0px"
   width="512"
   height="512"
   viewBox="0 0 512 511.99998"
   enable-background="new 0 0 1200 409.2"
   xml:space="preserve"
   sodipodi:docname="favicon.svg"
   inkscape:version="1.3.2 (091e20ef0f, 2023-11-25)"
   inkscape:export-filename="../static/favicon.ico"
   inkscape:export-xdpi="96"
   inkscape:export-ydpi="96"
   xmlns:inkscape="http://www.inkscape.org/namespaces/inkscape"
   xmlns:sodipodi="http://sodipodi.sourceforge.net/DTD/sodipodi-0.dtd"
   xmlns="http://www.w3.org/2000/svg"
   xmlns:svg="http://www.w3.org/2000/svg"><defs
   id="defs15">
	
	
	
	
	
	
	
	
	
	
	
	
	
	

		
	
		
	
		
	
		
	
		
	
		
	
		
	</defs><sodipodi:namedview
   id="namedview15"
   pagecolor="#ffffff"
   bordercolor="#000000"
   borderopacity="0.25"
   inkscape:showpageshadow="2"
   inkscape:pageopacity="0.0"
   inkscape:pagecheckerboard="0"
   inkscape:deskcolor="#d1d1d1"
   inkscape:zoom="0.8680012"
   inkscape:cx="251.72776"
   inkscape:cy="263.24849"
   inkscape:window-width="1920"
   inkscape:window-height="1011"
   inkscape:window-x="0"
   inkscape:window-y="0"
   inkscape:window-maximized="1"
   inkscape:current-layer="geekfem_x5F_logo_x5F_positiv" />
<path
   id="path7"
   style="stroke:#ffffff;stroke-width:19.2482;stroke-linejoin:round;stroke-dasharray:none;stroke-opacity:1;paint-order:stroke fill markers"
   d="m 387.82996,9.6238189 c -4.00219,20.3747201 -10.30982,32.7456201 -18.678,37.1116401 -3.3958,1.6979 -7.76128,2.547 -12.97624,2.547 -2.183,0 -10.54965,-0.72826 -25.46686,-2.1836 -26.68117,-2.78939 -42.20771,-4.12281 -46.69501,-4.12281 -6.79155,0 -12.73217,1.93993 -17.82586,5.82082 -5.09366,3.88088 -8.61006,8.97374 -10.42923,15.03764 -1.69789,-7.64051 -5.33784,-12.97689 -11.15917,-16.00882 -5.70008,-3.03196 -13.21805,-4.60841 -22.55646,-4.60841 -2.30428,0 -6.42897,0.24395 -12.37159,0.60777 -4.85114,0.36384 -10.30743,1.09028 -16.25005,1.93922 -20.13217,2.30428 -32.9874,3.51819 -38.68746,3.51819 -4.60857,0 -8.73457,-0.8491 -12.13036,-2.547 -5.33624,-2.7894 -9.33694,-7.39841 -12.00506,-13.94741 -2.66812,-6.30647 -4.85286,-14.06969 -6.55076,-22.9230101 l -14.55206,4.4893701 c 1.94046,8.85329 3.51648,15.76389 4.97182,20.73627 1.21278,4.97241 3.5166,10.18921 6.66983,15.40419 3.15322,5.33623 7.52185,9.7013 12.97935,13.33964 5.33626,3.39578 12.36859,5.094 21.22187,5.094 3.75964,0 13.3406,-0.84912 28.62164,-2.547 18.67683,-2.06174 31.89683,-3.15478 39.65864,-3.15478 6.30648,0 10.43115,0.36394 12.37159,1.698 6.1852,4.48729 9.822,12.61575 11.15605,23.53078 h 17.46559 c 0.6064,-6.06389 1.69721,-10.55209 3.27383,-14.433 1.57662,-3.75962 4.00218,-6.7935 7.1554,-9.09778 2.06173,-1.45534 6.54807,-2.18045 13.33964,-2.18045 6.30646,0 19.52648,1.21076 39.65864,3.51504 13.94699,1.69789 22.43715,2.54701 25.34781,2.54701 10.79376,0 18.79606,-1.69823 24.13229,-5.09401 6.549,-4.24474 11.64366,-10.3071 15.282,-18.31145 3.63835,-7.88308 6.79082,-18.31406 9.58023,-31.29082 z M 344.53409,101.55079 c -1.81918,0 -3.51828,9.1e-4 -5.21618,0.12217 -6.91285,0.48512 -13.46086,1.69859 -19.64605,3.88159 -4.60856,1.57662 -9.09804,3.75957 -13.34278,6.30641 -4.24472,2.66812 -8.12455,5.57981 -11.64163,8.9756 -2.30428,2.30427 -4.4859,4.7276 -6.54764,7.27445 -0.97022,1.33406 -1.94018,2.66972 -2.9104,4.00377 -1.81918,2.78939 -3.5174,5.69928 -5.094,8.73123 -5.82135,11.76398 -8.73437,25.34697 -8.73437,40.38546 0,18.67683 4.36861,34.68588 12.97936,48.02645 0.60639,0.97024 1.33376,2.06238 2.06142,3.0326 1.45532,1.94046 2.9105,3.87949 4.6084,5.69863 2.54684,2.91068 5.21279,5.4589 8.12347,7.76319 3.75961,3.15324 7.88339,5.82051 12.24939,7.88223 5.45752,2.66812 11.28041,4.72932 17.46561,5.82082 3.7596,0.72768 7.63944,1.21331 11.64163,1.33459 1.33407,0 2.66972,0.12218 4.00377,0.12218 7.15541,0 13.94512,-0.85 20.37286,-2.66918 1.57662,-0.48512 3.15398,-0.96852 4.73059,-1.45364 3.15324,-1.0915 6.18398,-2.42626 9.09465,-3.88158 1.45533,-0.72768 2.91095,-1.57588 4.245,-2.42483 8.36818,-5.21497 15.52625,-12.00691 20.98377,-20.25383 1.81918,-2.78938 3.51425,-5.7024 5.09087,-8.73435 2.183,-4.36602 4.00429,-9.09315 5.33835,-13.94428 2.3043,-8.12562 3.39601,-16.85751 3.39601,-26.07464 0,-7.39796 -0.72826,-14.43341 -2.1836,-21.225 -0.60638,-3.15322 -1.57767,-6.427 -2.66917,-9.58023 -1.0915,-3.15322 -2.30408,-6.30614 -3.75941,-9.21682 -2.3043,-4.72984 -4.97247,-9.09845 -8.00441,-12.97936 -3.03195,-4.00217 -6.42837,-7.51722 -10.18801,-10.67046 -2.54682,-2.06173 -5.215,-4.00164 -8.0044,-5.82082 -1.45534,-0.84894 -2.78967,-1.70029 -4.24501,-2.42795 -5.82134,-3.03196 -12.12586,-5.21358 -18.67486,-6.54764 -4.97241,-0.97022 -10.187,-1.45676 -15.52323,-1.45676 z m -177.18724,0.12217 c -1.81918,0 -3.5183,9.2e-4 -5.21618,0.12218 -12.12783,0.72768 -23.16531,4.24315 -32.98882,10.30705 -11.27886,6.79157 -20.0085,16.6169 -26.19369,28.86601 -2.18302,4.366 -4.004295,9.09627 -5.338355,13.9474 -2.18301,8.2469 -3.396,16.97836 -3.396,26.43805 0,18.55555 4.36861,34.68589 12.979365,48.02647 1.33404,1.94045 2.78742,4.00163 4.36404,5.8208 0.72766,0.97024 1.57588,1.93929 2.42482,2.78823 0.97024,1.0915 1.94018,2.18456 2.9104,3.15478 l 0.12218,0.12218 c 0.97022,0.97022 1.9411,1.93928 3.0326,2.78822 0.97022,0.84894 2.06013,1.82025 3.15163,2.6692 0.12127,0.12126 0.24438,0.11993 0.24438,0.24122 0.9702,0.72766 1.94106,1.45594 3.03258,2.1836 0.12126,0.12126 0.3643,0.24212 0.48558,0.3634 0.97024,0.6064 1.93797,1.33283 3.02947,1.93922 0.12127,0.12127 0.36431,0.24438 0.48558,0.24438 3.51706,2.0617 7.15611,3.7577 11.03701,5.21304 0.24256,0.12127 0.36521,0.12306 0.60777,0.24436 1.0915,0.36384 2.06014,0.7255 3.15164,0.96805 0.36383,0.12127 0.72639,0.24436 1.09023,0.24436 0.97022,0.24256 1.82112,0.48425 2.79135,0.72681 0.48511,0.12126 0.84947,0.24437 1.33459,0.24437 0.84894,0.24256 1.81711,0.36118 2.66605,0.48246 0.48512,0.12126 0.97166,0.12306 1.45678,0.24435 0.84894,0.12127 1.82024,0.24215 2.66918,0.36343 0.48512,0 0.96852,0.12217 1.45364,0.12217 0.97022,0.12127 1.94018,0.11995 2.9104,0.24123 0.48512,0 0.84947,0.12218 1.33459,0.12218 1.45534,0.12126 2.91185,0.12218 4.36719,0.12218 9.82351,0 19.0388,-1.70045 27.52828,-4.97495 3.8809,-1.45534 7.51995,-3.27441 11.037,-5.45741 5.57878,-3.51705 10.67385,-7.63952 14.91859,-12.49063 1.0915,-1.21278 2.18139,-2.42536 3.15163,-3.75941 3.03196,-3.88092 5.70014,-8.12646 8.00442,-12.73502 5.82134,-11.76397 8.73123,-25.22611 8.73123,-40.02204 0,-5.5788 -0.36347,-10.91515 -1.21241,-16.00882 -0.6064,-3.3958 -1.33464,-6.79132 -2.1836,-10.06582 -1.33406,-4.85114 -3.15221,-9.57916 -5.33522,-14.06646 -2.30428,-4.72984 -4.97246,-9.09845 -8.00442,-12.97936 -0.97024,-1.33406 -2.06013,-2.54663 -3.15163,-3.75941 -4.36602,-4.97239 -9.34071,-9.09576 -15.04077,-12.61282 -4.24474,-2.54684 -8.60981,-4.72979 -13.33964,-6.30641 -1.57662,-0.60638 -3.15398,-1.0898 -4.7306,-1.45364 -6.42775,-1.6979 -13.21746,-2.66918 -20.37286,-2.66918 z m 0.11905,16.25318 c 1.45534,0 2.79188,-0.002 4.12594,0.11905 1.33406,0.12127 2.66658,0.24214 4.00064,0.36341 4.00219,0.48512 7.76208,1.33513 11.40042,2.66919 1.21278,0.36382 2.42668,0.84947 3.51818,1.33459 2.30427,0.97022 4.6081,2.18412 6.66982,3.51818 6.42773,4.00216 11.76185,9.21454 16.12787,15.64227 0.72768,1.09152 1.33687,2.18323 2.06454,3.39601 0.60638,1.0915 1.21067,2.30538 1.81705,3.51818 0.60639,1.21278 1.09161,2.42535 1.69799,3.75941 1.0915,2.54682 1.94153,5.09504 2.66918,7.76317 0.72768,2.66812 1.33507,5.45625 1.82019,8.24565 0.60639,4.24472 0.96805,8.73107 0.96803,13.33963 0,4.60857 -0.36164,8.97586 -0.96803,13.22059 -0.48512,2.7894 -0.97124,5.57974 -1.82019,8.1266 -0.72766,2.6681 -1.57768,5.21231 -2.66918,7.63785 -0.4851,1.21278 -1.0916,2.4276 -1.69799,3.64036 -0.60638,1.21278 -1.21068,2.30228 -1.81705,3.51506 -0.60638,1.09151 -1.33686,2.18545 -2.06454,3.27695 -4.24474,6.30647 -9.57886,11.52106 -16.12787,15.52322 -2.183,1.33406 -4.36555,2.54482 -6.66982,3.51506 -1.21278,0.4851 -2.3054,0.97075 -3.51818,1.33459 -3.63834,1.21278 -7.39823,2.06277 -11.40042,2.66917 -1.33406,0.12127 -2.66658,0.24214 -4.00064,0.36342 -1.33406,0.12127 -2.79188,0.12218 -4.12594,0.12218 -16.97893,0 -30.68148,-5.82289 -40.9901,-17.46559 -9.09586,-10.18737 -14.1905,-23.16253 -15.282,-38.92868 -0.12126,-2.18302 -0.24122,-4.48863 -0.24122,-6.91419 -0.24255,-12.37037 2.18118,-23.40785 6.91104,-32.98882 2.91067,-5.94262 6.67188,-11.03503 11.15918,-15.40105 2.66811,-2.54684 5.57889,-4.84932 8.8534,-6.91104 2.183,-1.33406 4.36556,-2.54796 6.66982,-3.51818 4.60857,-1.94046 9.58145,-3.27611 14.79641,-4.00378 1.33406,-0.12127 2.66659,-0.24213 4.00065,-0.36341 1.33405,-0.12126 2.66748,-0.11905 4.12282,-0.11905 z m 177.30941,0.11905 c 5.5788,0 10.91423,0.60831 15.88665,1.94237 2.42556,0.60639 4.85112,1.45548 7.15541,2.547 2.30428,0.97022 4.61122,2.18099 6.67294,3.51505 3.27452,1.94044 6.18217,4.24605 8.85028,6.91417 1.81918,1.6979 3.39835,3.63693 4.97495,5.69865 2.3043,3.03194 4.36416,6.3062 6.06206,10.06582 1.21277,2.42557 2.18365,4.97198 3.03259,7.51882 0.48512,1.33405 0.84858,2.6697 1.21241,4.00376 1.81917,6.67031 2.79136,13.82662 2.79136,21.5884 -0.12126,7.51926 -0.97309,14.55158 -2.91355,21.22187 -0.36384,1.33406 -0.72729,2.66883 -1.21241,3.88161 -0.84894,2.54682 -1.93795,4.97106 -3.02945,7.39662 -1.81918,3.51706 -3.76089,6.79265 -6.06519,9.82459 -1.5766,1.94046 -3.15264,3.8817 -4.97182,5.5796 -2.66811,2.54684 -5.57889,4.84932 -8.8534,6.91104 -2.183,1.33406 -4.36554,2.54795 -6.66982,3.51818 -2.30429,0.97023 -4.72985,1.81933 -7.15541,2.547 -4.97242,1.33406 -10.31098,1.93924 -15.88977,1.93924 -2.18302,0 -4.24378,-0.11993 -6.18423,-0.24123 -2.06174,-0.12126 -4.00255,-0.48516 -5.94301,-0.849 -3.88088,-0.72766 -7.51904,-1.81849 -10.91481,-3.27383 -6.79159,-2.91066 -12.85526,-7.27704 -18.07023,-13.0984 -3.8809,-4.36601 -7.03248,-9.21672 -9.45804,-14.67423 -4.00218,-8.97458 -6.06518,-19.40468 -6.06518,-31.16864 0,-10.91503 1.81906,-20.73771 5.4574,-29.34845 0.48512,-1.21278 1.09163,-2.4276 1.69801,-3.64038 4.72984,-9.58097 11.39871,-16.97899 20.00944,-22.31521 2.18302,-1.33406 4.36866,-2.54483 6.67296,-3.51505 4.60856,-1.94046 9.57833,-3.27611 14.79328,-4.00377 1.33406,-0.12126 2.66971,-0.24214 4.00377,-0.36342 1.33407,-0.12126 2.66748,-0.12218 4.12281,-0.12218 z m -173.66905,23.64982 c -9.58097,0 -17.70725,2.18254 -24.49883,6.66981 2.54684,0.48511 4.72846,1.69901 6.54764,3.51819 2.54684,2.54684 3.75941,5.82151 3.75941,9.70241 0,4.12347 -1.33162,7.3977 -3.87846,10.06582 -2.54682,2.54685 -5.82241,3.88159 -9.82459,3.88159 -4.00216,0 -7.15466,-1.33474 -9.58022,-3.88159 -1.09151,-1.0915 -1.82155,-2.42625 -2.42795,-3.88159 -1.81916,4.85113 -2.66605,10.06529 -2.66605,15.88664 0,11.88526 3.75988,21.70884 11.40041,29.47063 7.51924,7.7618 17.70672,11.64478 30.31963,11.64478 12.7342,0 23.16297,-3.88298 31.40987,-11.64478 8.24691,-7.76179 12.24941,-17.828 12.24941,-30.31963 0,-11.88525 -4.00293,-21.70883 -11.88599,-29.47065 -7.88309,-7.76177 -18.19007,-11.64163 -30.92428,-11.64163 z m 171.36643,0 c -9.58098,0 -17.70725,2.18254 -24.49883,6.66981 2.54686,0.48511 4.72846,1.69901 6.54764,3.51819 2.54684,2.54684 3.75941,5.82151 3.75941,9.70241 0,4.12347 -1.33162,7.3977 -3.87846,10.06582 -2.54684,2.54685 -5.82241,3.88159 -9.82459,3.88159 -4.00219,0 -7.15466,-1.33474 -9.58022,-3.88159 -1.0915,-1.0915 -1.82157,-2.42625 -2.42797,-3.88159 -1.81917,4.85113 -2.66604,10.06529 -2.66604,15.88664 0,11.88526 3.75989,21.70884 11.40042,29.47063 7.64051,7.7618 17.82667,11.64478 30.56086,11.64478 12.73419,0 23.16297,-3.88298 31.40987,-11.64478 8.24691,-7.76179 12.24941,-17.828 12.24941,-30.31963 0,-11.88525 -3.99981,-21.70883 -11.88287,-29.47065 -8.12565,-7.76177 -18.43444,-11.64163 -31.16863,-11.64163 z M 238.65658,244.29556 c -3.51706,4.60858 -7.51909,8.85411 -11.7638,12.73501 L 256,308.08962 285.10721,257.15275 c -2.54682,-2.30428 -4.97329,-4.73075 -7.27757,-7.27759 -1.57662,-1.81918 -3.0309,-3.63823 -4.48624,-5.45741 L 256,274.85956 Z m -126.006,16.85783 c -7.88309,21.46622 -12.00819,45.4802 -12.00819,71.67628 0,49.84531 13.94645,90.95909 41.59786,122.12755 27.89396,31.41102 65.12568,47.41869 110.60497,47.41869 30.07696,0 57.12435,-7.27759 80.28846,-21.58842 23.16412,-14.31081 41.23526,-34.5631 53.96947,-60.0315 8.97457,-18.1917 14.67437,-38.68884 17.22121,-60.76146 0.12127,-0.84894 0.24215,-1.8171 0.36343,-2.66604 0.48511,-4.48729 0.84675,-9.09628 0.96803,-13.94742 h -74.70573 v 16.37223 h 0.12217 56.87988 c -2.42558,19.40449 -7.64328,37.353 -15.52637,53.36169 -11.27885,22.67902 -27.40738,40.6275 -47.78209,53.36169 -20.49601,12.73419 -44.50907,19.1636 -71.55408,19.1636 -41.23455,0 -73.37452,-13.70573 -98.23651,-41.84224 -24.9833,-27.89396 -37.5941,-65.3678 -37.5941,-110.96837 0,-22.92156 3.27245,-44.02477 9.82145,-62.82288 -5.09366,-2.42555 -9.82129,-5.45761 -14.42986,-8.8534 z" />
</svg>
