<?xml version="1.0" encoding="UTF-8" standalone="no"?>
<!-- Generator: Adobe Illustrator 16.0.0, SVG Export Plug-In . SVG Version: 6.00 Build 0)  -->

<svg
   version="1.1"
   id="geekfem_x5F_logo_x5F_positiv"
   x="0px"
   y="0px"
   width="512"
   height="512"
   viewBox="0 0 512 511.99998"
   enable-background="new 0 0 1200 409.2"
   xml:space="preserve"
   sodipodi:docname="favicon_maskable.svg"
   inkscape:version="1.3.2 (091e20ef0f, 2023-11-25)"
   inkscape:export-filename="../static/favicon.ico"
   inkscape:export-xdpi="96"
   inkscape:export-ydpi="96"
   xmlns:inkscape="http://www.inkscape.org/namespaces/inkscape"
   xmlns:sodipodi="http://sodipodi.sourceforge.net/DTD/sodipodi-0.dtd"
   xmlns="http://www.w3.org/2000/svg"
   xmlns:svg="http://www.w3.org/2000/svg"><defs
   id="defs15">
	
	
	
	
	
	
	
	
	
	
	
	
	
	

		
	
		
	
		
	
		
	
		
	
		
	
		
	</defs><sodipodi:namedview
   id="namedview15"
   pagecolor="#ffffff"
   bordercolor="#000000"
   borderopacity="0.25"
   inkscape:showpageshadow="2"
   inkscape:pageopacity="0.0"
   inkscape:pagecheckerboard="0"
   inkscape:deskcolor="#d1d1d1"
   inkscape:zoom="0.8680012"
   inkscape:cx="251.72776"
   inkscape:cy="263.24849"
   inkscape:window-width="1920"
   inkscape:window-height="1011"
   inkscape:window-x="0"
   inkscape:window-y="0"
   inkscape:window-maximized="1"
   inkscape:current-layer="geekfem_x5F_logo_x5F_positiv" />
<path
   id="path7"
   style="stroke-width:12;stroke:#ffffff;stroke-opacity:1;stroke-dasharray:none;paint-order:stroke fill markers;stroke-linejoin:round"
   d="M 338.1875 102.40039 C 335.69239 115.10272 331.75999 122.81518 326.54297 125.53711 C 324.42591 126.59564 321.70431 127.125 318.45312 127.125 C 317.09216 127.125 311.87609 126.67098 302.57617 125.76367 C 285.94218 124.02466 276.26238 123.19336 273.46484 123.19336 C 269.23074 123.19336 265.52715 124.40278 262.35156 126.82227 C 259.17599 129.24175 256.98374 132.41682 255.84961 136.19727 C 254.79108 131.4339 252.52181 128.10701 248.89258 126.2168 C 245.33895 124.32657 240.65198 123.34375 234.83008 123.34375 C 233.39351 123.34375 230.82203 123.49584 227.11719 123.72266 C 224.09282 123.94949 220.69117 124.40238 216.98633 124.93164 C 204.43522 126.36821 196.42081 127.125 192.86719 127.125 C 189.99404 127.125 187.42175 126.59564 185.30469 125.53711 C 181.97789 123.7981 179.48371 120.92468 177.82031 116.8418 C 176.15691 112.91012 174.79486 108.07025 173.73633 102.55078 L 164.66406 105.34961 C 165.87381 110.86907 166.85636 115.17738 167.76367 118.27734 C 168.51976 121.37732 169.95604 124.62966 171.92188 127.88086 C 173.88771 131.20766 176.61127 133.929 180.01367 136.19727 C 183.34048 138.31432 187.72469 139.37305 193.24414 139.37305 C 195.58803 139.37305 201.56114 138.84368 211.08789 137.78516 C 222.73169 136.4998 230.97351 135.81836 235.8125 135.81836 C 239.74418 135.81836 242.31565 136.04525 243.52539 136.87695 C 247.38146 139.67449 249.64877 144.74206 250.48047 151.54688 L 261.36914 151.54688 C 261.74719 147.76643 262.42724 144.96833 263.41016 142.54883 C 264.39308 140.20495 265.90526 138.31352 267.87109 136.87695 C 269.15645 135.96964 271.95339 135.51758 276.1875 135.51758 C 280.11917 135.51758 288.361 136.27241 300.91211 137.70898 C 309.60716 138.76751 314.90023 139.29688 316.71484 139.29688 C 323.44405 139.29688 328.43297 138.23814 331.75977 136.12109 C 335.84265 133.47477 339.01884 129.69528 341.28711 124.70508 C 343.55539 119.79049 345.52075 113.28744 347.25977 105.19727 L 338.1875 102.40039 z M 311.19531 159.71094 C 310.06117 159.71094 309.00189 159.71151 307.94336 159.78711 C 303.63364 160.08955 299.55138 160.84607 295.69531 162.20703 C 292.82217 163.18995 290.02327 164.55088 287.37695 166.13867 C 284.73064 167.80207 282.31181 169.61732 280.11914 171.73438 C 278.68257 173.17094 277.32247 174.68173 276.03711 176.26953 C 275.43224 177.10123 274.82753 177.93393 274.22266 178.76562 C 273.08852 180.50463 272.02979 182.31876 271.04688 184.20898 C 267.41764 191.54307 265.60156 200.01119 265.60156 209.38672 C 265.60156 221.03052 268.32511 231.01113 273.69336 239.32812 C 274.0714 239.933 274.52487 240.61388 274.97852 241.21875 C 275.88582 242.4285 276.79303 243.63736 277.85156 244.77148 C 279.43935 246.5861 281.1014 248.17475 282.91602 249.61133 C 285.2599 251.57717 287.83081 253.24004 290.55273 254.52539 C 293.95514 256.18879 297.58534 257.47382 301.44141 258.1543 C 303.78528 258.60796 306.20411 258.91072 308.69922 258.98633 C 309.53092 258.98633 310.36361 259.0625 311.19531 259.0625 C 315.65625 259.0625 319.8892 258.53258 323.89648 257.39844 C 324.8794 257.096 325.86278 256.79463 326.8457 256.49219 C 328.81154 255.81171 330.70101 254.97957 332.51562 254.07227 C 333.42293 253.61861 334.33041 253.08981 335.16211 252.56055 C 340.37913 249.30935 344.84173 245.07501 348.24414 239.93359 C 349.37828 238.19459 350.43505 236.37851 351.41797 234.48828 C 352.77893 231.76635 353.91439 228.81929 354.74609 225.79492 C 356.18267 220.72912 356.86328 215.28535 356.86328 209.53906 C 356.86328 204.92691 356.40926 200.54076 355.50195 196.30664 C 355.12391 194.34081 354.51837 192.29982 353.83789 190.33398 C 353.15741 188.36815 352.40145 186.40251 351.49414 184.58789 C 350.05756 181.63914 348.39413 178.91559 346.50391 176.49609 C 344.61368 174.001 342.49623 171.80959 340.15234 169.84375 C 338.56456 168.55839 336.90112 167.34898 335.16211 166.21484 C 334.2548 165.68558 333.42293 165.15482 332.51562 164.70117 C 328.88639 162.81094 324.95593 161.45084 320.87305 160.61914 C 317.77307 160.01427 314.52211 159.71094 311.19531 159.71094 z M 200.73047 159.78711 C 199.59633 159.78711 198.53704 159.78768 197.47852 159.86328 C 189.9176 160.31694 183.03644 162.50861 176.91211 166.28906 C 169.88047 170.52317 164.4381 176.64863 160.58203 184.28516 C 159.22106 187.00708 158.08561 189.9561 157.25391 192.98047 C 155.89294 198.12188 155.13672 203.56538 155.13672 209.46289 C 155.13672 221.03108 157.86027 231.08731 163.22852 239.4043 C 164.06021 240.61405 164.9663 241.89906 165.94922 243.0332 C 166.40287 243.63808 166.93168 244.24222 167.46094 244.77148 C 168.06582 245.45196 168.67052 246.13341 169.27539 246.73828 L 169.35156 246.81445 C 169.95643 247.41932 170.56171 248.02347 171.24219 248.55273 C 171.84706 249.08199 172.52655 249.68754 173.20703 250.2168 C 173.28263 250.2924 173.35938 250.29157 173.35938 250.36719 C 173.96424 250.82084 174.56951 251.27487 175.25 251.72852 C 175.3256 251.80412 175.47712 251.87947 175.55273 251.95508 C 176.15761 252.33313 176.76093 252.78601 177.44141 253.16406 C 177.51701 253.23966 177.66853 253.31641 177.74414 253.31641 C 179.9368 254.60175 182.20551 255.6591 184.625 256.56641 C 184.77622 256.64201 184.85269 256.64313 185.00391 256.71875 C 185.68439 256.94558 186.28827 257.17105 186.96875 257.32227 C 187.19558 257.39787 187.42161 257.47461 187.64844 257.47461 C 188.25331 257.62583 188.78379 257.77651 189.38867 257.92773 C 189.6911 258.00333 189.91826 258.08008 190.2207 258.08008 C 190.74996 258.2313 191.35355 258.30525 191.88281 258.38086 C 192.18525 258.45646 192.48858 258.45758 192.79102 258.5332 C 193.32028 258.6088 193.92582 258.68416 194.45508 258.75977 C 194.75752 258.75977 195.05889 258.83594 195.36133 258.83594 C 195.9662 258.91154 196.57091 258.91072 197.17578 258.98633 C 197.47822 258.98633 197.70537 259.0625 198.00781 259.0625 C 198.91512 259.1381 199.82316 259.13867 200.73047 259.13867 C 206.8548 259.13867 212.59994 258.07855 217.89258 256.03711 C 220.31207 255.1298 222.58078 253.99573 224.77344 252.63477 C 228.25145 250.44211 231.4279 247.87202 234.07422 244.84766 C 234.7547 244.09157 235.43418 243.33561 236.03906 242.50391 C 237.92929 240.08441 239.59273 237.43759 241.0293 234.56445 C 244.65853 227.23037 246.47266 218.83759 246.47266 209.61328 C 246.47266 206.13526 246.24606 202.80839 245.7168 199.63281 C 245.33875 197.51575 244.88474 195.39886 244.35547 193.35742 C 243.52377 190.33305 242.39027 187.38543 241.0293 184.58789 C 239.59273 181.63914 237.92929 178.91559 236.03906 176.49609 C 235.43418 175.66439 234.7547 174.90843 234.07422 174.15234 C 231.35229 171.05238 228.25089 168.48172 224.69727 166.28906 C 222.05095 164.70127 219.32961 163.34034 216.38086 162.35742 C 215.39794 161.97938 214.41456 161.678 213.43164 161.45117 C 209.42435 160.39264 205.1914 159.78711 200.73047 159.78711 z M 200.80469 169.91992 C 201.712 169.91992 202.54525 169.91854 203.37695 169.99414 C 204.20865 170.06974 205.03939 170.1451 205.87109 170.2207 C 208.3662 170.52314 210.71025 171.05307 212.97852 171.88477 C 213.73461 172.11159 214.4914 172.41436 215.17188 172.7168 C 216.60844 173.32167 218.04473 174.07846 219.33008 174.91016 C 223.33736 177.40525 226.66284 180.65483 229.38477 184.66211 C 229.83843 185.3426 230.21822 186.02321 230.67188 186.7793 C 231.04991 187.45978 231.42665 188.21656 231.80469 188.97266 C 232.18274 189.72875 232.48524 190.48471 232.86328 191.31641 C 233.54376 192.90419 234.07369 194.49284 234.52734 196.15625 C 234.981 197.81965 235.35967 199.55787 235.66211 201.29688 C 236.04016 203.94319 236.26563 206.74014 236.26562 209.61328 C 236.26562 212.48643 236.04016 215.20915 235.66211 217.85547 C 235.35967 219.59448 235.05661 221.33408 234.52734 222.92188 C 234.07369 224.58527 233.54376 226.17142 232.86328 227.68359 C 232.56085 228.43968 232.18274 229.19704 231.80469 229.95312 C 231.42665 230.70921 231.04991 231.38844 230.67188 232.14453 C 230.29383 232.82502 229.83843 233.50702 229.38477 234.1875 C 226.73845 238.11918 223.41297 241.37014 219.33008 243.86523 C 217.96912 244.69693 216.60844 245.45176 215.17188 246.05664 C 214.41579 246.35907 213.73461 246.66184 212.97852 246.88867 C 210.71025 247.64476 208.3662 248.17468 205.87109 248.55273 C 205.03939 248.62833 204.20865 248.70369 203.37695 248.7793 C 202.54525 248.8549 201.63639 248.85547 200.80469 248.85547 C 190.21942 248.85547 181.67676 245.22527 175.25 237.9668 C 169.57932 231.61563 166.40314 223.52645 165.72266 213.69727 C 165.64706 212.3363 165.57227 210.8989 165.57227 209.38672 C 165.42106 201.67459 166.9321 194.79343 169.88086 188.82031 C 171.69548 185.11547 174.04035 181.94068 176.83789 179.21875 C 178.50129 177.63096 180.31597 176.19551 182.35742 174.91016 C 183.71838 174.07846 185.07906 173.32167 186.51562 172.7168 C 189.38877 171.50705 192.48904 170.67436 195.74023 170.2207 C 196.57193 170.1451 197.40268 170.06975 198.23438 169.99414 C 199.06607 169.91854 199.89738 169.91992 200.80469 169.91992 z M 311.3457 169.99414 C 314.82372 169.99414 318.15002 170.37338 321.25 171.20508 C 322.76218 171.58313 324.27436 172.11248 325.71094 172.79297 C 327.14751 173.39784 328.58574 174.15268 329.87109 174.98438 C 331.91254 176.19412 333.72527 177.63152 335.38867 179.29492 C 336.52281 180.35345 337.50732 181.56231 338.49023 182.84766 C 339.92681 184.73788 341.211 186.77917 342.26953 189.12305 C 343.02562 190.63524 343.6309 192.22276 344.16016 193.81055 C 344.4626 194.64225 344.68919 195.47494 344.91602 196.30664 C 346.05015 200.46515 346.65625 204.92665 346.65625 209.76562 C 346.58065 214.45339 346.04959 218.83759 344.83984 222.99609 C 344.61301 223.82779 344.38642 224.65993 344.08398 225.41602 C 343.55472 227.0038 342.87579 228.51516 342.19531 230.02734 C 341.06117 232.22 339.85064 234.26212 338.41406 236.15234 C 337.43115 237.36209 336.44859 238.57233 335.31445 239.63086 C 333.65105 241.21865 331.83637 242.6541 329.79492 243.93945 C 328.43396 244.77115 327.07329 245.52793 325.63672 246.13281 C 324.20014 246.73768 322.68796 247.26704 321.17578 247.7207 C 318.0758 248.5524 314.74755 248.92969 311.26953 248.92969 C 309.90856 248.92969 308.62381 248.85492 307.41406 248.7793 C 306.1287 248.7037 304.91873 248.47683 303.70898 248.25 C 301.2895 247.79635 299.02134 247.11629 296.9043 246.20898 C 292.67018 244.39437 288.88987 241.67221 285.63867 238.04297 C 283.21918 235.32104 281.25437 232.29694 279.74219 228.89453 C 277.24709 223.29946 275.96094 216.79696 275.96094 209.46289 C 275.96094 202.65807 277.09501 196.53426 279.36328 191.16602 C 279.66572 190.40993 280.04384 189.65257 280.42188 188.89648 C 283.37063 182.92336 287.52824 178.31117 292.89648 174.98438 C 294.25745 174.15268 295.62006 173.39784 297.05664 172.79297 C 299.92978 171.58322 303.02811 170.75053 306.2793 170.29688 C 307.111 170.22128 307.94369 170.14592 308.77539 170.07031 C 309.6071 169.99471 310.43839 169.99414 311.3457 169.99414 z M 203.07422 184.73828 C 197.1011 184.73828 192.03489 186.09895 187.80078 188.89648 C 189.38857 189.19891 190.74867 189.9557 191.88281 191.08984 C 193.4706 192.67763 194.22656 194.71918 194.22656 197.13867 C 194.22656 199.70939 193.39638 201.75066 191.80859 203.41406 C 190.22081 205.00186 188.17869 205.83398 185.68359 205.83398 C 183.1885 205.83398 181.22312 205.00186 179.71094 203.41406 C 179.03045 202.73358 178.57532 201.90145 178.19727 200.99414 C 177.06314 204.01851 176.53516 207.2692 176.53516 210.89844 C 176.53516 218.30813 178.8792 224.4325 183.64258 229.27148 C 188.33034 234.11046 194.68158 236.53125 202.54492 236.53125 C 210.48387 236.53125 216.98554 234.11046 222.12695 229.27148 C 227.26837 224.4325 229.76367 218.15687 229.76367 210.36914 C 229.76367 202.95945 227.2681 196.83508 222.35352 191.99609 C 217.43892 187.15712 211.01318 184.73828 203.07422 184.73828 z M 309.91016 184.73828 C 303.93704 184.73828 298.87083 186.09895 294.63672 188.89648 C 296.22452 189.19891 297.58461 189.9557 298.71875 191.08984 C 300.30654 192.67763 301.0625 194.71918 301.0625 197.13867 C 301.0625 199.70939 300.23232 201.75066 298.64453 203.41406 C 297.05674 205.00186 295.01463 205.83398 292.51953 205.83398 C 290.02442 205.83398 288.05906 205.00186 286.54688 203.41406 C 285.8664 202.73358 285.41125 201.90145 285.0332 200.99414 C 283.89906 204.01851 283.37109 207.2692 283.37109 210.89844 C 283.37109 218.30813 285.71514 224.4325 290.47852 229.27148 C 295.24189 234.11046 301.5923 236.53125 309.53125 236.53125 C 317.4702 236.53125 323.97187 234.11046 329.11328 229.27148 C 334.2547 224.4325 336.75 218.15687 336.75 210.36914 C 336.75 202.95945 334.25638 196.83508 329.3418 191.99609 C 324.27598 187.15712 317.84911 184.73828 309.91016 184.73828 z M 245.1875 248.70312 C 242.99484 251.57627 240.49983 254.22309 237.85352 256.64258 L 256 288.47461 L 274.14648 256.71875 C 272.5587 255.28218 271.04595 253.76943 269.60938 252.18164 C 268.62646 251.0475 267.71981 249.91344 266.8125 248.7793 L 256 267.75781 L 245.1875 248.70312 z M 166.63086 259.21289 C 161.71627 272.5957 159.14453 287.56687 159.14453 303.89844 C 159.14453 334.97378 167.83925 360.60558 185.07812 380.03711 C 202.46821 399.61986 225.67979 409.59961 254.0332 409.59961 C 272.78425 409.59961 289.64656 405.0625 304.08789 396.14062 C 318.52923 387.21875 329.79542 374.59275 337.73438 358.71484 C 343.32945 347.37349 346.88291 334.59484 348.4707 320.83398 C 348.5463 320.30472 348.62166 319.70114 348.69727 319.17188 C 348.99971 316.37434 349.22517 313.50093 349.30078 310.47656 L 302.72656 310.47656 L 302.72656 320.68359 L 302.80273 320.68359 L 338.26367 320.68359 C 336.75148 332.78104 333.49858 343.97078 328.58398 353.95117 C 321.55234 368.09008 311.49724 379.2798 298.79492 387.21875 C 286.01698 395.1577 271.04638 399.16602 254.18555 399.16602 C 228.47846 399.16602 208.44126 390.62138 192.94141 373.08008 C 177.36593 355.68999 169.50391 332.32746 169.50391 303.89844 C 169.50391 289.60832 171.54407 276.45183 175.62695 264.73242 C 172.45138 263.22024 169.50401 261.32995 166.63086 259.21289 z " />
</svg>
