<?xml version="1.0" encoding="utf-8"?>
<!-- Generator: Adobe Illustrator 16.0.0, SVG Export Plug-In . SVG Version: 6.00 Build 0)  -->
<!DOCTYPE svg PUBLIC "-//W3C//DTD SVG 1.1//EN" "http://www.w3.org/Graphics/SVG/1.1/DTD/svg11.dtd">
<svg version="1.1" id="geekfem_x5F_logo_x5F_positiv"
	 xmlns="http://www.w3.org/2000/svg" xmlns:xlink="http://www.w3.org/1999/xlink" x="0px" y="0px" width="1200px" height="409.2px"
	 viewBox="0 0 1200 409.2" enable-background="new 0 0 1200 409.2" xml:space="preserve">
<g>
	<g>
		<path d="M371.3,326.3c-6.7,2.2-14,3.3-21.9,3.3c-13.1,0-23.3-3.5-30.8-10.5c-7.4-7-11.9-17.2-13.5-30.6l28.8,0.3
			c19.4,0.2,34.6-3.3,45.6-10.3c11-7.1,16.5-17.1,16.5-30c0-8-2.1-15.1-6.4-21.2c-4.3-6.1-10.1-10.8-17.4-14.1
			c-7.3-3.3-15.3-5-23.8-5c-12.9,0-23.9,3.6-32.9,10.7c-9,7.2-15.7,16.3-20.2,27.5c-4.5,11.2-6.7,22.7-6.7,34.6
			c0,12,2.3,22.8,6.9,32.3c4.6,9.5,11.5,17,20.6,22.4c9.1,5.4,20.2,8.1,33.3,8.1c9.2,0,18.1-1.5,26.6-4.6c8.5-3.1,16-7.2,22.6-12.4
			l-7.9-10.5C384.5,320.8,378,324.1,371.3,326.3z M309.4,251.3c3.3-8.2,8.3-15.1,15.1-20.7c6.7-5.6,15-8.4,24.7-8.4
			c8.7,0,16.1,2.1,22.1,6.4c6,4.3,9,10.8,9,19.5c0,18-14.3,27-42.9,27h-33C304.4,267.5,306.1,259.5,309.4,251.3z"/>
	</g>
	<g>
		<path d="M504.6,326.3c-6.7,2.2-14,3.3-21.9,3.3c-13.1,0-23.3-3.5-30.8-10.5c-7.4-7-11.9-17.2-13.5-30.6l28.8,0.3
			c19.4,0.2,34.6-3.3,45.6-10.3c11-7.1,16.5-17.1,16.5-30c0-8-2.1-15.1-6.4-21.2c-4.3-6.1-10.1-10.8-17.4-14.1
			c-7.3-3.3-15.3-5-23.8-5c-12.9,0-23.9,3.6-32.9,10.7c-9,7.2-15.7,16.3-20.2,27.5c-4.5,11.2-6.7,22.7-6.7,34.6
			c0,12,2.3,22.8,6.9,32.3c4.6,9.5,11.5,17,20.6,22.4c9.1,5.4,20.2,8.1,33.3,8.1c9.3,0,18.1-1.5,26.6-4.6c8.5-3.1,16-7.2,22.6-12.4
			l-7.9-10.5C517.8,320.8,511.3,324.1,504.6,326.3z M442.7,251.3c3.3-8.2,8.3-15.1,15.1-20.7c6.7-5.6,15-8.4,24.7-8.4
			c8.7,0,16.1,2.1,22.1,6.4c6,4.3,9,10.8,9,19.5c0,18-14.3,27-42.9,27h-33C437.7,267.5,439.4,259.5,442.7,251.3z"/>
	</g>
	<g>
		<path d="M666,328.8c-3,0-5.2-1.5-6.8-4.5l-23.6-39.5c6.8-2.8,12.6-7.4,17.4-13.9c4.8-6.5,7.2-14.4,7.2-23.8
			c0-11.7-3.8-21.3-11.4-28.8c-7.6-7.5-17.2-11.3-28.9-11.3c-8.9,0-17.1,2.2-24.5,6.7c-7.4,4.5-13.2,10.7-17.4,18.7V151h-15.7v190.1
			H578V289h42.4l24.9,43.2c2.1,3.7,5,6.5,8.8,8.4c3.8,1.9,7.7,2.9,11.9,2.9c6.5,0,12-2.8,16.5-8.4l-11.3-8.9
			C670,327.9,668.3,328.8,666,328.8z M608.2,274.4h-29.6c0.2-6.8,1.1-13.1,2.9-18.9c3.3-11,8.1-19.4,14.4-25.1
			c6.3-5.8,13.9-8.6,22.8-8.6c8.2,0,14.7,2.3,19.5,6.9c4.8,4.6,7.2,10.6,7.2,17.9c0,11.3-5.8,19.5-17.3,24.4
			C622.6,273.2,616,274.4,608.2,274.4z"/>
	</g>
	<g>
		<path d="M750.9,146.8c-15,0-26,5-32.9,15.1c-6.9,10-10.3,26-10.3,47.8v199.5h15.7V289.3h38.8v-14.1h-38.8v-43.5l12.6,0.8
			c16.1,0.9,28.9-2.9,38.6-11.4c9.7-8.5,14.5-20.1,14.5-35c0-12.2-3.4-21.8-10.2-28.8C772.1,150.3,762.7,146.8,750.9,146.8z
			 M763.4,210.1c-6.6,5.8-15.8,8.8-27.5,8.8h-12.6v-10c0-16.4,2.2-28.5,6.5-36.3c4.4-7.8,11.2-11.6,20.4-11.6c7.3,0,13,2.1,17,6.4
			c4,4.3,6,10.4,6,18.5C773.4,196.2,770,204.2,763.4,210.1z"/>
	</g>
	<g>
		<path d="M876.7,326.3c-6.7,2.2-14,3.3-21.9,3.3c-13.1,0-23.3-3.5-30.8-10.5c-7.4-7-11.9-17.2-13.5-30.6l28.8,0.3
			c19.4,0.2,34.6-3.3,45.6-10.3c11-7.1,16.5-17.1,16.5-30c0-8-2.1-15.1-6.4-21.2c-4.3-6.1-10.1-10.8-17.4-14.1
			c-7.3-3.3-15.3-5-23.8-5c-12.9,0-23.9,3.6-32.9,10.7c-9,7.2-15.7,16.3-20.2,27.5c-4.5,11.2-6.7,22.7-6.7,34.6
			c0,12,2.3,22.8,6.9,32.3c4.6,9.5,11.5,17,20.6,22.4c9.1,5.4,20.2,8.1,33.3,8.1c9.2,0,18.1-1.5,26.6-4.6c8.5-3.1,16-7.2,22.7-12.4
			l-7.9-10.5C889.9,320.8,883.4,324.1,876.7,326.3z M814.7,251.3c3.3-8.2,8.3-15.1,15.1-20.7c6.7-5.6,15-8.4,24.7-8.4
			c8.7,0,16.1,2.1,22.1,6.4c6,4.3,9,10.8,9,19.5c0,18-14.3,27-42.9,27h-33C809.8,267.5,811.4,259.5,814.7,251.3z"/>
	</g>
	<g>
		<path d="M1116.1,327.8c-2.3,0-4.5-0.8-6.1-2.5c-1.7-1.7-2.7-3.7-2.7-6.2v-69.9c0-12.4-3.5-22.4-10.9-30
			c-7.4-7.6-17.2-11.4-29.6-11.4c-8.6,0-16.2,2.1-23.1,6.2c-6.9,4.1-12.8,10-17.6,17.7c-3.1-7.9-7.8-13.8-14-17.8
			c-6.2-4-13.6-6-22.1-6c-8.4,0-15.9,1.9-22.6,5.6c-6.7,3.8-12.4,9.1-17.1,16.1c-1.4-4.5-3.5-8.6-6.3-12.3c-2.8-3.7-5.7-6.5-8.6-8.6
			l-10.7,10.5c7.3,6.5,10.8,16.6,10.8,30.4v91.3h16v-93.4c3-7.2,8-13.2,14.9-18.1c6.9-4.9,14.4-7.3,22.4-7.3
			c8.4,0,14.4,2.8,18.6,8.2c4.2,5.5,6.1,13.1,6.1,22.9v87.7h16v-92.9c9-17.3,21.6-25.9,37.3-25.9c8,0,14.3,2.2,18.5,6.7
			c4.2,4.5,6.2,11.4,7.2,20.8v69.4c0,7,2.1,12.7,6.7,17c4.5,4.4,10.2,6.5,17.2,6.5c4.4,0,8.3-1,11.8-3c3.5-2,5.9-4.5,7.3-7.5
			l-11.5-8.6C1122.1,326.3,1119.6,327.8,1116.1,327.8z"/>
	</g>
	<g>
		<polygon points="1200,194 1195.5,179 1167.5,190.2 1169.4,159.8 1153.7,159.8 1155.2,190 1127.7,179.1 1122.8,194 1150.5,201.3 
			1132.7,222.8 1145.3,232.2 1161.5,207.1 1177.5,231.7 1190.3,222.8 1172.8,201.6 		"/>
	</g>
	<g>
		<path d="M22.2,33.5c2.6,4.4,6.2,8,10.7,11c4.4,2.8,10.2,4.2,17.5,4.2c3.1,0,11-0.7,23.6-2.1c15.4-1.7,26.3-2.6,32.7-2.6
			c5.2,0,8.6,0.3,10.2,1.4c5.1,3.7,8.1,10.4,9.2,19.4h14.4c0.5-5,1.4-8.7,2.7-11.9c1.3-3.1,3.3-5.6,5.9-7.5c1.7-1.2,5.4-1.8,11-1.8
			c5.2,0,16.1,1,32.7,2.9c11.5,1.4,18.5,2.1,20.9,2.1c8.9,0,15.5-1.4,19.9-4.2c5.4-3.5,9.6-8.5,12.6-15.1c3-6.5,5.6-15.1,7.9-25.8
			l-12-3.7c-3.3,16.8-8.5,27-15.4,30.6c-2.8,1.4-6.4,2.1-10.7,2.1c-1.8,0-8.7-0.6-21-1.8c-22-2.3-34.8-3.4-38.5-3.4
			c-5.6,0-10.5,1.6-14.7,4.8c-4.2,3.2-7.1,7.4-8.6,12.4c-1.4-6.3-4.4-10.7-9.2-13.2c-4.7-2.5-10.9-3.8-18.6-3.8
			c-1.9,0-5.3,0.2-10.2,0.5c-4,0.3-8.5,0.9-13.4,1.6c-16.6,1.9-27.2,2.9-31.9,2.9c-3.8,0-7.2-0.7-10-2.1c-4.4-2.3-7.7-6.1-9.9-11.5
			C27.8,13.7,26,7.3,24.6,0l-12,3.7c1.6,7.3,2.9,13,4.1,17.1C17.7,24.9,19.6,29.2,22.2,33.5z"/>
	</g>
	<g>
		<path d="M262.8,116.1c-0.9-2.6-1.9-5.2-3.1-7.6c-1.9-3.9-4.1-7.5-6.6-10.7c-2.5-3.3-5.3-6.2-8.4-8.8c-2.1-1.7-4.3-3.3-6.6-4.8
			c-1.2-0.7-2.3-1.4-3.5-2c-4.8-2.5-10-4.3-15.4-5.4c-4.1-0.8-8.4-1.2-12.8-1.2c-1.5,0-2.9,0-4.3,0.1c-5.7,0.4-11.1,1.4-16.2,3.2
			c-3.8,1.3-7.5,3.1-11,5.2c-3.5,2.2-6.7,4.6-9.6,7.4c-1.9,1.9-3.7,3.9-5.4,6c-0.8,1.1-1.6,2.2-2.4,3.3c-1.5,2.3-2.9,4.7-4.2,7.2
			c-4.8,9.7-7.2,20.9-7.2,33.3c0,15.4,3.6,28.6,10.7,39.6c0.5,0.8,1.1,1.7,1.7,2.5c1.2,1.6,2.4,3.2,3.8,4.7c2.1,2.4,4.3,4.5,6.7,6.4
			c3.1,2.6,6.5,4.8,10.1,6.5c4.5,2.2,9.3,3.9,14.4,4.8c3.1,0.6,6.3,1,9.6,1.1c1.1,0,2.2,0.1,3.3,0.1c5.9,0,11.5-0.7,16.8-2.2
			c1.3-0.4,2.6-0.8,3.9-1.2c2.6-0.9,5.1-2,7.5-3.2c1.2-0.6,2.4-1.3,3.5-2c6.9-4.3,12.8-9.9,17.3-16.7c1.5-2.3,2.9-4.7,4.2-7.2
			c1.8-3.6,3.3-7.5,4.4-11.5c1.9-6.7,2.8-13.9,2.8-21.5c0-6.1-0.6-11.9-1.8-17.5C264.5,121.4,263.7,118.7,262.8,116.1z M250.9,159.3
			c-0.3,1.1-0.6,2.2-1,3.2c-0.7,2.1-1.6,4.1-2.5,6.1c-1.5,2.9-3.1,5.6-5,8.1c-1.3,1.6-2.6,3.2-4.1,4.6c-2.2,2.1-4.6,4-7.3,5.7
			c-1.8,1.1-3.6,2.1-5.5,2.9c-1.9,0.8-3.9,1.5-5.9,2.1c-4.1,1.1-8.5,1.6-13.1,1.6c-1.8,0-3.5-0.1-5.1-0.2c-1.7-0.1-3.3-0.4-4.9-0.7
			c-3.2-0.6-6.2-1.5-9-2.7c-5.6-2.4-10.6-6-14.9-10.8c-3.2-3.6-5.8-7.6-7.8-12.1c-3.3-7.4-5-16-5-25.7c0-9,1.5-17.1,4.5-24.2
			c0.4-1,0.9-2,1.4-3c3.9-7.9,9.4-14,16.5-18.4c1.8-1.1,3.6-2.1,5.5-2.9c3.8-1.6,7.9-2.7,12.2-3.3c1.1-0.1,2.2-0.2,3.3-0.3
			c1.1-0.1,2.2-0.1,3.4-0.1c4.6,0,9,0.5,13.1,1.6c2,0.5,4,1.2,5.9,2.1c1.9,0.8,3.8,1.8,5.5,2.9c2.7,1.6,5.1,3.5,7.3,5.7
			c1.5,1.4,2.8,3,4.1,4.7c1.9,2.5,3.6,5.2,5,8.3c1,2,1.8,4.1,2.5,6.2c0.4,1.1,0.7,2.2,1,3.3c1.5,5.5,2.3,11.4,2.3,17.8
			C253.2,148,252.5,153.8,250.9,159.3z"/>
	</g>
	<g>
		<path d="M14.3,185.8c0.6,0.8,1.3,1.6,2,2.3c0,0,0,0,0,0c0.8,0.9,1.6,1.8,2.4,2.6c0,0,0.1,0.1,0.1,0.1c0.8,0.8,1.6,1.6,2.5,2.3
			c0,0,0,0,0,0c0.8,0.7,1.7,1.5,2.6,2.2c0.1,0.1,0.2,0.1,0.2,0.2c0.8,0.6,1.6,1.2,2.5,1.8c0.1,0.1,0.3,0.2,0.4,0.3
			c0.8,0.5,1.6,1.1,2.5,1.6c0.1,0.1,0.3,0.2,0.4,0.2c2.9,1.7,5.9,3.1,9.1,4.3c0.2,0.1,0.3,0.1,0.5,0.2c0.9,0.3,1.7,0.6,2.6,0.8
			c0.3,0.1,0.6,0.2,0.9,0.2c0.8,0.2,1.5,0.4,2.3,0.6c0.4,0.1,0.7,0.2,1.1,0.2c0.7,0.2,1.5,0.3,2.2,0.4c0.4,0.1,0.8,0.1,1.2,0.2
			c0.7,0.1,1.5,0.2,2.2,0.3c0.4,0,0.8,0.1,1.2,0.1c0.8,0.1,1.6,0.1,2.4,0.2c0.4,0,0.7,0.1,1.1,0.1c1.2,0.1,2.4,0.1,3.6,0.1
			c8.1,0,15.7-1.4,22.7-4.1c3.2-1.2,6.2-2.7,9.1-4.5c4.6-2.9,8.8-6.3,12.3-10.3c0.9-1,1.8-2,2.6-3.1c2.5-3.2,4.7-6.7,6.6-10.5
			c4.8-9.7,7.2-20.8,7.2-33c0-4.6-0.3-9-1-13.2c-0.5-2.8-1.1-5.6-1.8-8.3c-1.1-4-2.6-7.9-4.4-11.6c-1.9-3.9-4.1-7.5-6.6-10.7
			c-0.8-1.1-1.7-2.1-2.6-3.1c-3.6-4.1-7.7-7.5-12.4-10.4c-3.5-2.1-7.1-3.9-11-5.2c-1.3-0.5-2.6-0.9-3.9-1.2
			c-5.3-1.4-10.9-2.2-16.8-2.2c-1.5,0-2.9,0-4.3,0.1c-10,0.6-19.1,3.5-27.2,8.5C19.5,89.9,12.3,98,7.2,108.1
			c-1.8,3.6-3.3,7.5-4.4,11.5C1,126.4,0,133.6,0,141.4C0,156.7,3.6,170,10.7,181C11.8,182.6,13,184.3,14.3,185.8z M19.5,114.1
			c2.4-4.9,5.5-9.1,9.2-12.7c2.2-2.1,4.6-4,7.3-5.7c1.8-1.1,3.6-2.1,5.5-2.9c3.8-1.6,7.9-2.7,12.2-3.3c1.1-0.1,2.2-0.2,3.3-0.3
			c1.1-0.1,2.2-0.1,3.4-0.1c1.2,0,2.3,0,3.4,0.1c1.1,0.1,2.2,0.2,3.3,0.3c3.3,0.4,6.4,1.1,9.4,2.2c1,0.3,2,0.7,2.9,1.1
			c1.9,0.8,3.8,1.8,5.5,2.9c5.3,3.3,9.7,7.6,13.3,12.9c0.6,0.9,1.1,1.8,1.7,2.8c0.5,0.9,1,1.9,1.5,2.9c0.5,1,0.9,2,1.4,3.1
			c0.9,2.1,1.6,4.2,2.2,6.4c0.6,2.2,1.1,4.5,1.5,6.8c0.5,3.5,0.8,7.2,0.8,11c0,3.8-0.3,7.4-0.8,10.9c-0.4,2.3-0.8,4.6-1.5,6.7
			c-0.6,2.2-1.3,4.3-2.2,6.3c-0.4,1-0.9,2-1.4,3c-0.5,1-1,1.9-1.5,2.9c-0.5,0.9-1.1,1.8-1.7,2.7c-3.5,5.2-7.9,9.5-13.3,12.8
			c-1.8,1.1-3.6,2.1-5.5,2.9c-1,0.4-1.9,0.8-2.9,1.1c-3,1-6.1,1.7-9.4,2.2c-1.1,0.1-2.2,0.2-3.3,0.3c-1.1,0.1-2.3,0.1-3.4,0.1
			c-14,0-25.3-4.8-33.8-14.4c-7.5-8.4-11.7-19.1-12.6-32.1c-0.1-1.8-0.2-3.7-0.2-5.7C13.6,131.1,15.6,122,19.5,114.1z"/>
	</g>
	<g>
		<path d="M195.3,288.5l46.9,0c-2,16-6.3,30.8-12.8,44c-9.3,18.7-22.6,33.5-39.4,44c-16.9,10.5-36.7,15.8-59,15.8
			c-34,0-60.5-11.3-81-34.5C29.4,334.8,19,303.9,19,266.3c0-18.9,2.7-36.3,8.1-51.8c-4.2-2-8.1-4.5-11.9-7.3
			c-6.5,17.7-9.9,37.5-9.9,59.1c0,41.1,11.5,75,34.3,100.7c23,25.9,53.7,39.1,91.2,39.1c24.8,0,47.1-6,66.2-17.8
			c19.1-11.8,34-28.5,44.5-49.5c7.4-15,12.1-31.9,14.2-50.1c0.1-0.7,0.2-1.5,0.3-2.2c0.4-3.7,0.7-7.5,0.8-11.5h-61.6V288.5z"/>
	</g>
	<g>
		<path d="M119.1,193.3c-2.9,3.8-6.2,7.3-9.7,10.5l24,42.1l24-42c-2.1-1.9-4.1-3.9-6-6c-1.3-1.5-2.5-3-3.7-4.5l-14.3,25.1
			L119.1,193.3z"/>
	</g>
	<g>
		<path d="M204.7,108.7c-7.9,0-14.6,1.8-20.2,5.5c2.1,0.4,3.9,1.4,5.4,2.9c2.1,2.1,3.1,4.8,3.1,8c0,3.4-1.1,6.1-3.2,8.3
			c-2.1,2.1-4.8,3.2-8.1,3.2c-3.3,0-5.9-1.1-7.9-3.2c-0.9-0.9-1.5-2-2-3.2c-1.5,4-2.2,8.3-2.2,13.1c0,9.8,3.1,17.9,9.4,24.3
			c6.3,6.4,14.7,9.6,25.2,9.6c10.5,0,19.1-3.2,25.9-9.6c6.8-6.4,10.1-14.7,10.1-25c0-9.8-3.3-17.9-9.8-24.3
			C223.7,111.9,215.2,108.7,204.7,108.7z"/>
	</g>
	<g>
		<path d="M62.7,177.2c10.5,0,19.1-3.2,25.9-9.6c6.8-6.4,10.1-14.7,10.1-25c0-9.8-3.3-17.9-9.8-24.3c-6.5-6.4-15-9.6-25.5-9.6
			c-7.9,0-14.6,1.8-20.2,5.5c2.1,0.4,3.9,1.4,5.4,2.9c2.1,2.1,3.1,4.8,3.1,8c0,3.4-1.1,6.1-3.2,8.3c-2.1,2.1-4.8,3.2-8.1,3.2
			s-5.9-1.1-7.9-3.2c-0.9-0.9-1.5-2-2-3.2c-1.5,4-2.2,8.3-2.2,13.1c0,9.8,3.1,17.9,9.4,24.3C43.9,174,52.3,177.2,62.7,177.2z"/>
	</g>
</g>
</svg>
